<?xml version="1.0" encoding="utf-8"?>
<!-- Generator: Adobe Illustrator 14.0.0, SVG Export Plug-In . SVG Version: 6.00 Build 43363)  -->
<!DOCTYPE svg PUBLIC "-//W3C//DTD SVG 1.1//EN" "http://www.w3.org/Graphics/SVG/1.1/DTD/svg11.dtd">
<svg version="1.1" id="Layer_1" xmlns="http://www.w3.org/2000/svg" xmlns:xlink="http://www.w3.org/1999/xlink" x="0px" y="0px"
	 width="120px" height="85px" viewBox="0 0 120 85" enable-background="new 0 0 120 85" xml:space="preserve">
<rect fill="#D1D3D4" width="120" height="85"/>
<g>
	<g>
		<path fill="#FFFFFF" d="M89.688,19.605c-4.537-0.004-9.568,0.008-13.323,2.917c-3.764,2.917-3.825,7.431-0.563,10.741
			c2.661,2.7,6.358,3.328,9.764,4.529c0.628,0.222,1.198,0.521,1.773,0.855c1.082,0.678,1.229-0.554,0.444-3.695
			c-0.385,0.197-0.79,0.339-1.215,0.425c-2.316,0.668-4.734,1.084-6.53-0.811c-3.109-3.283-8.052,1.676-4.949,4.95
			c3.618,3.819,8.544,3.86,13.341,2.611c3.975-1.035,7.639-5.188,3.557-8.698c-2.792-2.4-6.502-2.512-9.655-4.088
			c-0.783-0.391-1.422-0.869-2.032-1.488c0.023,0.183,0.004,0.366-0.056,0.549c0.274-0.584,1.252-0.905,1.791-1.102
			c2.396-0.874,5.148-0.699,7.654-0.697C94.203,26.609,94.202,19.609,89.688,19.605L89.688,19.605z"/>
	</g>
</g>
<path d="M78.8,32.216l0.6,0.4l-2.3,1.2l3.8,1.3l5.7,1.7l2.2-0.7v-0.8h1.5l-1.5-1.5l1.7,0.3l-1.7-1.7l4.1,1.7l0.2,5.398l-6.8,2.799
	l-2.2-0.7l1.3-0.5l0.2-3.498l-9.3-3.299v4.698l-1-0.2l-0.2-5.198L78.8,32.216z M76.6,28.917l-0.399-1.5v-3.6l1.3-1.6h1.899l-1.6,0.7
	l-0.6,1.1l2.6,0.8l4.6,0.2l4.301-1.2l1.5-1l-1.601-1.2l-5.3-0.4l-2.5,0.4l-0.9-0.4l2.801-0.7l5.8,0.3l2.899,1.9l0.2,5.8l-2.399,2
	l-2.7,0.6h-4.2l-2.2-0.2l-2.6-0.8L76.6,28.917z M78.2,25.517l0.1,3.9l0.5,0.2l0.1-3.9L78.2,25.517z M79.7,29.917l0.6,0.1l-0.2-3.9
	l-0.5-0.2L79.7,29.917z M77,24.816v3.3l0.399,0.5v-3.4L77,24.816z M82.3,30.417l3.7-0.8l0.1,3.4l-0.6,0.8l-2.2,0.1l-1.1-0.7
	L82.3,30.417z M77.7,37.115l1.199,0.5l-1.399,0.8l-1.3,5.698l-0.101,1.8L75.2,45.714v-1.4l1.1-6.398L77.7,37.115z M81,38.215l1,0.6
	l-1.3,0.5L79,45.014l-0.2,1.6l-0.8-0.1l0.1-1.9l1.5-5.799L81,38.215z M83.7,39.414l1.1,0.5l-1.5,0.6l-1.7,4.7l-0.3,2.199l-0.6-0.1
	v-2.2l1.6-5.1L83.7,39.414z M93.5,38.215v0.999v0.4l1.3,4.899l0.7,0.1l-1-5.099L93.5,38.215z M88.899,38.215l1.4,1.1l1.5,4.399
	L91,43.613l-1.5-3.999l-1.3-0.899L88.899,38.215z M90.6,7.316v-0.6l-4.2-0.8l-4.5-0.1l-3.5,0.6l-1.899,1.1l-1.5,1.5v1.9l1.7,1.8
	l4.199,1.5l3.301,0.3l3.399-0.2l3.2-1l0.9-1.4l-1.101-1.2l-2.2-0.5l-4.1-0.3l-4.1,0.5l-3.101,1.4l-1.7,1.6l-0.199,2l1.899,2.1
	l5.101,1.4l5.699-0.5l3.5-2l-0.5-0.5l-3.3,1.6l-5.399,0.3l-4.101-1l-1.7-1.6v-1.7l1.301-1.2l2.699-1.1l3.9-0.5l3.9,0.2l1.8,0.4
	l0.5,0.6l-0.4,0.8l-2.899,0.6l-3,0.2l-2.9-0.3l-3.9-1.3l-1.3-1.4l-0.1-1.3l1.2-1.2l1.5-0.9l3.5-0.6l4.1,0.1L90.6,7.316z
	 M83.399,2.917l0.2,7.2l-2.6-2.2l-0.7,0.8l3.8,2.8l3.3-2.6l-0.6-0.8l-2.4,2v-7.3L83.399,2.917z M87.899,15.316v0.6l3,0.4l-0.1,2.7
	h0.8l0.2-3.3L87.899,15.316z M89.399,5.316l-0.6,0.4l1.5,1.3l-2,0.9l0.4,0.6l2.6-1.3L89.399,5.316z M57.8,56.514l-1.7,0.1l-1.3-0.7
	l0.8-0.8l1.4,0.4l-0.2-2.3l-0.9-1l0.6-0.4l1.6,0.9l0.1,2.1l0.9-1.2v-1.5l-1.4-1.1l0.7-0.601l1.6,0.9l0.3,1.5l1.1-0.9l-0.199-1
	l-1.5-1.199l0.7-0.4l1.5,0.8l0.5,1l1-0.8l-0.3-1.2l-1.2-1l0.601-0.6l1.8,1.2l0.3,1.3l1-0.8l-0.7-1.9l-1.199-0.8l-1.2-0.2l-1.6,1.6
	l-2.3,1.5l-2.3,1.9l-1.4,0.9l-0.6,0.899l0.3,1.601l-1,0.199l-0.4-1.8l0.5-1.8l2-1l4-2.8l1.6-1.601l1.5-0.899l1.6,0.6l1.601,1.2
	l0.7,2.3l-0.4,1.3l-1.5,0.5l-2.6,1.9l-2.7,1.9l-0.8,1L57.8,56.514z M75.7,44.813l0.399,0.7L75,45.913l-9.2,2l-0.5-0.899l9.4-1.9
	l0.199-0.1L75.7,44.813z M48.8,62.113l-0.9-0.399l2-3.5l2.8-3l2.5-1.9l0.6,0.8l-2.5,1.7l-2.3,2.6L48.8,62.113z M78.3,46.014l0.5,0.6
	l-5.1,5.3l-2.301,4.101l-2.899,8.1l-0.8-0.3l2.699-8l2.5-4.6L78.3,46.014z M75.7,47.413l-3.601,3.2l-2.6,4.9l-1.601,4.8l0.801,0.7
	l0.8,0.1l1-0.2l1.7-4.5l2.3-4l2.8-3.1v-1.2l-0.5-0.6L75.7,47.413z M45.4,68.514h-1l-0.8-0.3l-1.3,0.399l-2.1-1.2l-0.3-2.699l1.7-1.9
	l2.1-0.2l1.7,0.601l-0.6,1.399l-1.8-0.5l-1.1,0.9v1.1l1.1,0.9l1-0.3v-0.4l-1-0.1v-1l2.4,0.1V68.514z M62.2,65.714L62,68.913
	l0.899,0.101l1.101,0.2l0.3,0.399l-0.2,0.4h-1l-1.1-0.2l-0.2,1.4l1.2,0.3l1.6,0.1l1.101-0.5l0.5-1.3l-0.4-1.2l-1.1-0.7h-1l0.1-0.699
	h2l0.1-1.5H62.2z M66.399,65.714l0.301,1.5l1.399,4.199h1.8l1.5-4.1l0.4-1.6h-1.9L68.7,70.913H69.6l-1.2-5.199H66.399z M45.1,45.214
	l0.4,0.6l1-0.6v2.6h-1.1v0.7h2.9v-0.7h-0.9l-0.1-3.7h-0.5L45.1,45.214z M49.2,45.113l1.1-1h1.4l1.1,1.2l0.2,1.6l-0.5,0.9l-0.8,0.6
	l-1.4,0.2l-1.1-1l-0.3-1.399L49.2,45.113z M50.5,44.913L50,45.514l-0.3,0.7l0.2,0.8l0.6,0.7h0.8l0.6-0.301l0.3-0.8l-0.1-0.899
	l-0.6-0.801H50.5z M54.2,42.613H55v3.5h0.4l1.1-1.399l0.9,0.1l-1.4,1.6l1.8,2.101h-1l-1.4-1.7H55v1.7h-0.8V42.613z M46.2,65.214
	l-0.1-1l1.5-0.101l0.2,0.8l1-0.8l1.1,0.101l0.7,1.199l-0.1,3.101h-1.7v-2.5l-0.3-0.3l-0.6,0.1v2.7h-1.8L46.2,65.214z M53.7,64.014
	H54l-0.1-1.9h1.9v6.5h-1l-0.7-0.6l-0.8,0.6l-1.3-0.1l-0.7-0.9l-0.3-1l0.3-1.5l1.3-1L53.7,64.014z M54,65.514h-0.8l-0.4,0.7l0.4,0.8
	H54V65.514z M6.2,58.813l22.1-13.5l3.7,2.2l-0.3,9.7L9.6,71.113l-0.1-9l-1.3,8.5l-1.8-0.6L6.2,58.813z M7.6,59.014l2.1,0.899v-1.5
	l2.4,0.2l-2.4-0.8L7.6,59.014z M10.6,57.214l2.1,0.899v-1.5l2.4,0.2l-2.4-0.8L10.6,57.214z M13.8,55.413l2.1,0.9v-1.5l2.4,0.2
	l-2.4-0.8L13.8,55.413z M16.8,53.613l2.1,0.9v-1.5l2.4,0.2l-2.4-0.801L16.8,53.613z M20,51.813l2.1,0.9v-1.5l2.4,0.199l-2.4-0.8
	L20,51.813z M26.2,48.214l2.1,0.899v-1.5l2.4,0.2l-2.4-0.8L26.2,48.214z M12.1,67.113l1.7-0.7l1.4-1.1l0.8-1.6l-0.1-2.101l-1.1-1.1
	l-1.4-0.2l-1.6,0.8L12.1,67.113z M13.4,65.014l-0.1-2.8l0.7-0.101l0.5,0.4l0.1,1.2l-0.4,0.699L13.4,65.014z M55.2,33.716l-6.8-0.4
	l-7,0.8l-7.7,2.5l-4,3.098l-1.5,3.899l0.1,4.8l-1-0.1l-0.1-4.9l1.6-4.299l4.4-3.298l7.9-2.5l7.2-1l7.1,0.6l8,2l5.4,3.199l7.3,7.298
	h-1l-7-6.698L63,35.716L55.2,33.716z M55.4,32.116l-7.3-0.6l-7.3,1l-8.1,2.6l-4.6,3.398l-1.6,4.199l0.7,0.8l0.7,0.1l1.3-0.2
	l1.3-3.199l3.9-2.898l7.3-2.399l6.9-0.8l6.5,0.4l7.601,2l4.8,2.897l3.899,3.499l0.801-0.1l0.8-0.6l0.399-0.601L69.5,37.615
	l-5.7-3.399L55.4,32.116z M99,58.313l-0.9-0.8l-0.8-1l-2.7-1.9L92,52.714l-1.5-0.5l-0.4-1.301l0.7-2.3l1.6-1.2l1.601-0.6l1.5,0.9
	l1.6,1.6l4,2.8l2,1l0.5,1.8l-0.399,1.801l-1-0.2l0.3-1.601l-0.601-0.899l-1.399-0.9l-2.3-1.899l-2.301-1.5l-1.6-1.601l-1.2,0.2
	l-1.2,0.8l-0.699,1.9l1,0.8l0.3-1.3l1.8-1.2l0.6,0.6l-1.199,1l-0.301,1.2l1,0.8l0.5-1l1.5-0.8l0.7,0.4l-1.5,1.2l-0.2,1l1.101,0.899
	l0.3-1.5l1.6-0.899l0.7,0.6l-1.399,1.1v1.5l0.899,1.2l0.101-2.1l1.6-0.9l0.6,0.4l-0.899,1l-0.2,2.3l1.4-0.4l0.8,0.801l-1.3,0.699
	L99,58.313z M81.1,46.613l0.8,0.2l0.2,0.1l9.4,1.9l-0.5,0.9l-9.2-2l-1.1-0.4L81.1,46.613z M108,63.913l-2.2-3.699l-2.3-2.601
	l-2.5-1.7l0.6-0.8l2.5,1.9l2.8,3l2,3.5L108,63.913z M101,47.413l0.399,0.601l1-0.601v2.601h-1.1v0.7h2.9v-0.7h-0.9l-0.1-3.7h-0.5
	L101,47.413z M105.1,47.313l1.101-1h1.399l1.101,1.2l0.199,1.6l-0.5,0.9l-0.8,0.6l-1.399,0.2l-1.101-1l-0.3-1.4L105.1,47.313z
	 M106.399,47.113l-0.5,0.601l-0.3,0.699l0.2,0.801l0.6,0.699h0.801l0.6-0.3l0.3-0.8l-0.1-0.9l-0.601-0.8H106.399z M110.1,44.813h0.8
	v3.5h0.4l1.1-1.4l0.9,0.101l-1.4,1.6l1.801,2.101h-1l-1.4-1.7h-0.4v1.7h-0.8V44.813z M105.399,70.413h-1l-0.8-0.3l-1.3,0.4l-2.1-1.2
	l-0.301-2.7l1.7-1.899l2.101-0.2l1.699,0.6l-0.6,1.4l-1.8-0.5l-1.101,0.899v1.101L103,68.913l1-0.3v-0.399l-1-0.101v-1l2.399,0.101
	V70.413z M106.2,67.113l-0.101-1l1.5-0.1l0.2,0.8l1-0.8l1.1,0.1l0.7,1.2l-0.1,3.1h-1.7v-2.5l-0.3-0.3l-0.601,0.101v2.699h-1.8
	L106.2,67.113z M113.7,65.913h0.3l-0.101-1.899h1.9v6.5h-1l-0.7-0.601l-0.8,0.601l-1.3-0.101l-0.7-0.899l-0.3-1l0.3-1.5l1.3-1
	L113.7,65.913z M114,67.413h-0.8l-0.4,0.7l0.4,0.8h0.8V67.413z M81.5,47.214l1,12.5l-1.2,7.199l-5.4,7.7L67,77.913l-15.2-0.1
	l-12.9-4.7l-5.9-6l-5.5-12.3l-2.1-3.9l-3.8-5.699l-3-1.801l-4.2,0.9l-2.2,2.9L12,52.913l0.4,4.301h-1l-0.3-4.2l0.2-6.2l2.5-3.3
	l5-1.101l3.4,2.101l4.1,5.899l2.1,3.9l5.4,12.2l5.6,5.8l12.6,4.6l14.7,0.101l8.399-3l5.3-7.3l1.2-6.9l-0.899-12.5L81.5,47.214z
	 M80,50.113l0.6,9.8l-1.2,6.5l-4.899,6.7l-8,2.8l-14.3,0.101l-12.3-4.3l-5.3-5.7l-5.4-12l-2.2-3.9l-4.3-6.2l-3.7-2.3l-5.8,1.3
	l-2.6,3.7l-0.2,5.7l0.7,0.7l0.9-0.101l0.7-0.6l0.3-4.6l1.9-2.801l3.6-0.699l2.6,1.6l3.8,5.5l1.9,3.9l5.5,12.5l6.2,6.199l13.1,4.801
	l15.7,0.199l9.3-3.5l5.601-8.1l1.199-7.5l-0.699-9.6l-1-0.7h-0.9L80,50.113z"/>
</svg>
