<?xml version="1.0" encoding="utf-8"?>
<!-- Generator: Adobe Illustrator 14.0.0, SVG Export Plug-In . SVG Version: 6.00 Build 43363)  -->
<!DOCTYPE svg PUBLIC "-//W3C//DTD SVG 1.1//EN" "http://www.w3.org/Graphics/SVG/1.1/DTD/svg11.dtd">
<svg version="1.1" id="Layer_1" xmlns="http://www.w3.org/2000/svg" xmlns:xlink="http://www.w3.org/1999/xlink" x="0px" y="0px"
	 width="120px" height="115px" viewBox="0 0 120 115" enable-background="new 0 0 120 115" xml:space="preserve">
<rect y="-0.068" fill="#D1D3D4" width="120" height="115.068"/>
<g>
	<g>
		<path fill="#FFFFFF" d="M82.25,69.068c-0.215-4.463-5.179-16.634-11.271-10.417c-5.965,6.087-0.711,15.829,0.729,22.723
			c0.923,4.417,7.67,2.543,6.75-1.861c-0.863-4.133-2.564-8.088-3.104-12.292c-0.117-0.909-0.172-1.871,0.023-2.769
			c0.705-1.026,0.049-1.184-1.97-0.473c0.199,0.245,0.368,0.51,0.509,0.795c0.727,1.229,1.266,2.866,1.334,4.294
			C75.467,73.562,82.468,73.582,82.25,69.068L82.25,69.068z"/>
	</g>
</g>
<g>
	<g>
		<path fill="#FFFFFF" d="M71.334,15.24c-0.121-5.229-3.859-13.981-10.618-10.402c-3.625,1.919-4.449,5.357-3.762,9.172
			c0.334,1.858,1.674,3.519,2.386,5.231c1.067,2.568-0.478,6.353-1.047,8.903c-0.982,4.397,5.766,6.266,6.75,1.861
			c1-4.475,2.453-9.242,0.609-13.679c-0.749-1.801-1.586-3.91-2.634-5.544c0.748,1.167,1.284,3.085,1.316,4.458
			C64.438,19.747,71.438,19.757,71.334,15.24L71.334,15.24z"/>
	</g>
</g>
<path d="M64.1,13.396l1-0.1l-0.1,2.9l-0.9,0.3V13.396z M62.5,13.097v3.199l-0.9-0.1v-3.1H62.5z M64.899,17.396l-0.1,14.999
	l-0.9,0.399V17.496L64.899,17.396z M62.2,17.597v20.595h-1l0.1-20.796L62.2,17.597z M58.5,16.597l0.1-7.201L61.2,5.597v1.6l-1.4,2.8
	l-0.3,4.101l1.6-2l-1.2,3.299l0.3,1.101l2.8,0.899l2.3-0.399l1.5-1l0.2-7.2l-1.5-2.5l-2.7-0.699l0.7-0.701l2.7,0.301l1.8,3.1
	l-0.101,6.4l0.601,0.199l0.3,1.5l-2.5,1.601l-3,0.7l-3.1-0.9L58.5,16.597z M82.1,44.091l-0.899-0.8l-0.801-1L77.7,40.392l-2.601-1.9
	l-1.5-0.5l-0.399-1.3l0.699-2.298l1.601-1.2l1.6-0.6l1.5,0.899l1.601,1.599l4,2.8l2,1l0.5,1.8l-0.4,1.8l-1-0.2l0.3-1.6l-0.6-0.9
	l-1.4-0.899l-2.3-1.9L79,35.492l-1.601-1.599L76.2,34.093l-1.2,0.8l-0.7,1.898l1,0.8l0.3-1.3l1.8-1.199L78,35.692l-1.2,0.999
	l-0.3,1.2l1,0.8l0.5-1l1.5-0.8l0.7,0.399l-1.5,1.2l-0.2,1l1.1,0.9l0.3-1.5l1.601-0.9l0.7,0.6l-1.4,1.101v1.5l0.9,1.2l0.1-2.101
	l1.6-0.899L84,39.791l-0.9,1l-0.2,2.3l1.4-0.399l0.8,0.8l-1.3,0.7L82.1,44.091z M64.7,32.094l0.5,0.301l9.399,2.197l-0.5,0.9
	l-9.2-2.299l-1-0.399L64.7,32.094z M91.1,49.691l-2.2-3.7l-2.3-2.6l-2.5-1.7l0.601-0.8l2.5,1.899l2.8,3l2,3.5L91.1,49.691z
	 M88.8,55.991h-1l-0.8-0.3l-1.3,0.399L83.6,54.892l-0.3-2.7l1.7-1.9l2.1-0.2l1.7,0.601l-0.6,1.399l-1.801-0.5l-1.1,0.9v1.1l1.1,0.9
	l1-0.3v-0.4l-1-0.1v-1l2.4,0.1V55.991z M89.6,52.691l-0.1-1l1.5-0.101l0.2,0.801l1-0.801l1.1,0.101l0.7,1.2l-0.101,3.1H92.2v-2.5
	l-0.301-0.3l-0.6,0.1v2.7h-1.8L89.6,52.691z M97.1,51.491h0.3l-0.1-1.9h1.9v6.5h-1l-0.7-0.6l-0.8,0.6l-1.301-0.1l-0.699-0.9
	l-0.301-1l0.301-1.5l1.3-1L97.1,51.491z M97.399,52.991h-0.8l-0.399,0.7l0.399,0.8h0.8V52.991z M92.6,33.094h0.8v3.497h0.4
	l1.1-1.398l0.9,0.1l-1.4,1.6l1.801,2.1h-1l-1.4-1.7h-0.4v1.7h-0.8V33.094z M92.1,27.597l1.101-1H94.6l1.101,1.199l0.199,1.6
	l-0.5,0.899l-0.8,0.601L93.2,31.095L92.1,30.097l-0.3-1.4L92.1,27.597z M93.399,27.396l-0.5,0.601l-0.3,0.7l0.2,0.8l0.6,0.7H94.2
	l0.6-0.301l0.3-0.799l-0.1-0.9l-0.601-0.801H93.399z M87.3,26.996l0.3,0.8l1-0.5h0.9l0.5,0.5l-0.2,0.7l-1.1,0.8l-1.4,0.801v0.898
	h3.6l-0.1-0.799h-2.5v0.099l1.1-0.499l1-0.6l0.5-1.301L90.7,27.097l-1.2-0.701l-1,0.101L87.3,26.996z M82.6,26.996l0.3,0.8l1-0.5
	h0.9l0.5,0.5l-0.2,0.7l-1.1,0.8l-1.4,0.801v0.898H86.2L86.1,30.196h-2.5v0.099l1.101-0.499l1-0.6l0.5-1.301L86,27.097l-1.2-0.701
	l-1,0.101L82.6,26.996z M100.3,32.994l2,0.799l0.8,1.6l-0.399,2.499l-1.2,1.199h-2.2l-1.3-1.5l-0.101-2.599l1-1.299L100.3,32.994z
	 M98.8,35.292v1.899l0.9,1.1h1.5l0.8-1l0.2-1.799l-0.601-1.099l-1.3-0.5l-1,0.6L98.8,35.292z M107.2,35.492l-1.101-0.1l-1,0.6
	v-2.799h-0.8v5.897h0.8v-2.399l1-0.601l0.8,0.101l0.101,1.1v1.8h0.8v-1.8v-1L107.2,35.492z M87.8,35.692l0.4,0.599l1-0.599v2.599
	H88.1v0.7H91v-0.7h-0.9L90,34.592h-0.5L87.8,35.692z M111.3,35.492h-0.9l-0.699,0.5v-0.5h-0.801v3.599h0.801v-2.399l0.899-0.601
	l0.5,0.2l0.101,1v1.8h0.699v-1.8v-1L111.3,35.492z M111.6,36.191l0.3,0.5l0.9-0.601l0.5,0.2l0.1,1v1.8h0.7v-1.8v-1l-0.6-0.799h-0.9
	L111.6,36.191z M99.8,26.396l0.5-0.1v3.5l0.5,0.499h0.9v0.601l-0.7,0.1l-0.8-0.2L99.6,30.097v-2.5L99.8,26.396z M99,27.696
	l0.8-1.301l0.1,0.9l1.801-0.1v0.699H99V27.696z M102.7,27.996l1-0.8h1.3l1,1l0.2,1.3l-0.5,0.999l-0.7,0.5l-1.3,0.1l-1-0.8
	l-0.301-1.198L102.7,27.996z M103.899,27.896l-0.5,0.5l-0.199,0.701l0.1,0.699l0.6,0.599h0.7l0.601-0.298l0.3-0.9l-0.101-0.7
	l-0.6-0.601H103.899z M62.2,38.191l-5.8,0.2l-5.8-1.801l-4.9-3.997l-5.3-5.598L35,23.597l-6.5-2l-5.3,1.1L20,26.396l-0.1,3.701
	l0.3,5.195h-0.7l-0.4-5.296l0.2-3.8l3.4-4l6.1-1.4l6.8,2.2l5.4,3.5l5.2,5.398l5,3.998l5.4,1.698l5.3-0.199L62.2,38.191z
	 M56.5,36.892l-4.8-1.6l-5-3.997l-5.2-5.499l-5.5-3.6l-7.3-2.301L22,21.496l-3.5,4.399v3.601l0.6,0.5l0.8,0.101l0.7-0.5l0.2-2.9
	l2.9-3.301l4.9-0.899l5.9,1.8l5.3,3.2l5.3,5.697l5.1,3.998l5.7,1.8l0.5-0.6l0.2-0.801L56.5,36.892z M9.3,39.491l2.1,0.9v-1.5
	l2.4,0.199l-2.4-0.8L9.3,39.491z M12.3,37.691l2.1,0.899v-1.5l2.4,0.2l-2.4-0.8L12.3,37.691z M15.5,35.893l2.1,0.898v-1.499l2.4,0.2
	l-2.4-0.8L15.5,35.893z M18.5,34.093l2.1,0.899v-1.499l2.4,0.2l-2.4-0.799L18.5,34.093z M21.7,32.294l2.1,0.899v-1.498l2.4,0.199
	l-2.4-0.8L21.7,32.294z M24.7,30.495l2.1,0.9v-1.5l2.4,0.201l-2.4-0.801L24.7,30.495z M27.9,28.696l2.1,0.9v-1.5l2.4,0.199l-2.4-0.8
	L27.9,28.696z M18.9,41.991l0.5,1.2l1-0.601l-0.2-1.199l0.2-0.601l0.5,0.101l0.7,0.699l0.4,0.101l0.9-0.3l0.5-0.801l0.1-1.399
	L23,38.091l-0.9,0.5l0.4,0.9l-0.1,1l-0.4,0.2l-0.6-0.601l-0.3-0.199l-0.5-0.301l-0.9,0.301l-0.5,0.8L18.9,41.991z M7.9,39.291
	L30,26.296l3.7,1.7l-0.3,9.695L11.3,51.591l-0.1-9l-1.3,8.5l-1.8-0.6L7.9,39.291z M13.8,47.591l1.7-0.699l1.4-1.101l0.8-1.6
	l-0.1-2.101l-1.1-1.1l-1.4-0.2l-1.6,0.8L13.8,47.591z M15.1,45.491l-0.1-2.8l0.7-0.101l0.5,0.4l0.1,1.2l-0.4,0.7L15.1,45.491z"/>
<path d="M75.7,66.823l1-0.1L76.6,69.623l-0.899,0.3V66.823z M74.1,66.523v3.2L73.2,69.623v-3.1H74.1z M76.5,70.823l-0.101,15
	l-0.899,0.4V70.923L76.5,70.823z M73.8,71.023v20.6h-1l0.1-20.8L73.8,71.023z M70.1,70.023l0.101-7.2l2.6-3.8v1.6l-1.4,2.8
	l-0.3,4.101l1.601-2l-1.2,3.3l0.3,1.1l2.8,0.9l2.3-0.4l1.5-1l0.2-7.199l-1.5-2.5l-2.7-0.7l0.7-0.7l2.7,0.3l1.8,3.101l-0.1,6.399
	l0.6,0.2l0.3,1.5l-2.5,1.6l-3,0.7l-3.1-0.899L70.1,70.023z M55.6,102.923l-1.7,0.101l-1.3-0.7l0.8-0.8l1.4,0.399l-0.2-2.3l-0.9-1
	l0.6-0.399l1.6,0.899l0.1,2.101l0.9-1.2v-1.5l-1.4-1.101l0.7-0.6l1.6,0.9l0.3,1.5l1.1-0.9l-0.2-1l-1.5-1.2l0.7-0.399l1.5,0.8l0.5,1
	l1-0.8l-0.3-1.2l-1.2-1l0.6-0.601l1.8,1.2l0.3,1.3l1-0.8L62.7,93.724l-1.2-0.801l-1.2-0.199l-1.6,1.6l-2.3,1.5l-2.3,1.9l-1.4,0.899
	l-0.6,0.9l0.3,1.6l-1,0.2l-0.4-1.8l0.5-1.8l2-1l4-2.801l1.6-1.6l1.5-0.9l1.601,0.601l1.6,1.2l0.7,2.3l-0.4,1.3l-1.5,0.5l-2.6,1.9
	l-2.7,1.899l-0.8,1L55.6,102.923z M73,90.923l0.8,0.7l-1,0.4l-9.2,2.3l-0.5-0.9l9.4-2.199L73,90.923z M46.6,108.523l-0.9-0.2l2-3.7
	l2.8-3l2.5-1.899l0.6,0.8l-2.5,1.7l-2.3,2.6L46.6,108.523z M103.399,94.423h-1l-0.8-0.3l-1.3,0.4l-2.1-1.2l-0.301-2.7l1.7-1.899
	l2.101-0.2l1.699,0.6l-0.6,1.4l-1.8-0.5l-1.101,0.899v1.101L101,92.923l1-0.3v-0.399l-1-0.101v-1l2.399,0.101V94.423z M104.2,91.123
	l-0.101-1l1.5-0.1l0.2,0.8l1-0.8l1.1,0.1l0.7,1.2l-0.1,3.1h-1.7v-2.5l-0.3-0.3l-0.601,0.101v2.699h-1.8L104.2,91.123z M111.7,89.923
	h0.3l-0.101-1.899h1.9v6.5h-1l-0.7-0.601l-0.8,0.601l-1.3-0.101l-0.7-0.899l-0.3-1l0.3-1.5l1.3-1L111.7,89.923z M112,91.423h-0.8
	l-0.4,0.7l0.4,0.8h0.8V91.423z M63.6,103.724h0.8v3.5h0.4l1.1-1.4l0.9,0.1l-1.4,1.601l1.801,2.1h-1l-1.4-1.7h-0.4v1.7h-0.8V103.724z
	 M75.1,98.224l1.101-1H77.6l1.101,1.199l0.199,1.601l-0.5,0.899l-0.8,0.601l-1.399,0.2l-1.101-1l-0.3-1.4L75.1,98.224z
	 M76.399,98.023l-0.5,0.6l-0.3,0.7l0.2,0.8l0.6,0.7H77.2l0.6-0.3l0.3-0.8l-0.1-0.9l-0.601-0.8H76.399z M70.3,97.623l0.3,0.8l1-0.5
	h0.9l0.5,0.5l-0.2,0.7l-1.1,0.8l-1.4,0.801v0.899h3.6l-0.1-0.8h-2.5v0.1l1.1-0.5l1-0.6l0.5-1.3l-0.199-0.8l-1.2-0.7l-1,0.1
	L70.3,97.623z M65.6,97.623l0.3,0.8l1-0.5h0.9l0.5,0.5l-0.2,0.7l-1.1,0.8l-1.4,0.801v0.899H69.2l-0.101-0.8h-2.5v0.1l1.101-0.5
	l1-0.6l0.5-1.3l-0.2-0.8l-1.2-0.7l-1,0.1L65.6,97.623z M71.3,103.623l2,0.8l0.8,1.601l-0.399,2.5l-1.2,1.2h-2.2l-1.3-1.5
	l-0.101-2.601l1-1.3L71.3,103.623z M69.8,105.923v1.9l0.9,1.1h1.5l0.8-1l0.2-1.8l-0.601-1.1l-1.3-0.5l-1,0.6L69.8,105.923z
	 M78.2,106.123l-1.101-0.1l-1,0.6v-2.8h-0.8v5.9h0.8v-2.4l1-0.6l0.8,0.1l0.101,1.1v1.801h0.8v-1.801v-1L78.2,106.123z M58.8,106.323
	l0.4,0.6l1-0.6v2.6h-1.1v0.7H62v-0.7h-0.9l-0.1-3.699h-0.5L58.8,106.323z M82.3,106.123h-0.9l-0.699,0.5v-0.5h-0.801v3.601H80.7
	v-2.4l0.899-0.6l0.5,0.199l0.101,1v1.801h0.699v-1.801v-1L82.3,106.123z M82.6,106.823l0.3,0.5l0.9-0.6l0.5,0.199l0.1,1v1.801h0.7
	v-1.801v-1l-0.6-0.8h-0.9L82.6,106.823z M82.8,97.023l0.5-0.101v3.5l0.5,0.5h0.9v0.601l-0.7,0.1l-0.8-0.2l-0.601-0.699v-2.5
	L82.8,97.023z M82,98.323l0.8-1.3l0.1,0.899l1.801-0.1v0.7H82V98.323z M85.7,98.623l1-0.8H88l1,1l0.2,1.3l-0.5,1l-0.7,0.5
	l-1.3,0.101l-1-0.801l-0.301-1.199L85.7,98.623z M86.899,98.523l-0.5,0.5l-0.199,0.7l0.1,0.699l0.6,0.601h0.7l0.601-0.3l0.3-0.9
	l-0.101-0.7l-0.6-0.6H86.899z M45.7,108.323l-1.1-5.7l-1.2-5.7l-1.8-5.8l-2.7-5.6l-4.6-4.4l-5.5-2l-5.3,1.101l-3.2,3.699l-0.1,3.7
	l0.3,5.2h-0.7l-0.4-5.3l0.2-3.8l3.4-4l6.1-1.4l5.8,2.2l4.6,4.5l2.6,5.6l2.1,5.8l1.2,5.801l1.2,5.5L45.7,108.323z M46,101.724
	l-1.1-5.7l-2.1-5.9l-2.7-5.8l-4.8-4.6l-6.2-2.301l-6.8,1.601l-3.5,4.399v3.601l0.6,0.5l0.8,0.1l0.7-0.5l0.2-2.899l2.9-3.301
	l4.9-0.899l4.9,1.8l4.4,4.3l2.7,5.601l1.7,5.5l1.1,5.399h0.9l0.8-0.399L46,101.724z M9.6,97.023l2.1,0.899v-1.5l2.4,0.2l-2.4-0.8
	L9.6,97.023z M12.6,95.224l2.1,0.899v-1.5l2.4,0.2l-2.4-0.8L12.6,95.224z M15.8,93.423l2.1,0.9v-1.5l2.4,0.2l-2.4-0.8L15.8,93.423z
	 M18.8,91.623l2.1,0.9v-1.5l2.4,0.2l-2.4-0.801L18.8,91.623z M22,89.823l2.1,0.9v-1.5l2.4,0.199l-2.4-0.8L22,89.823z M25,88.023
	l2.1,0.899v-1.5l2.4,0.2l-2.4-0.8L25,88.023z M28.2,86.224l2.1,0.899v-1.5l2.4,0.2l-2.4-0.8L28.2,86.224z M19.2,99.523l0.5,1.2
	l1-0.601l-0.2-1.2l0.2-0.6l0.5,0.1l0.7,0.7l0.4,0.101l0.9-0.301l0.5-0.8l0.1-1.399l-0.5-1.101l-0.9,0.5l0.4,0.9l-0.1,1l-0.4,0.2
	l-0.6-0.601l-0.3-0.2l-0.5-0.3l-0.9,0.3l-0.5,0.801L19.2,99.523z M8.2,96.823l22.1-13l3.7,1.7l-0.3,9.7l-22.1,13.899l-0.1-9
	l-1.3,8.5l-1.8-0.6L8.2,96.823z M14.1,105.123l1.7-0.7l1.4-1.1l0.8-1.6l-0.1-2.101l-1.1-1.1l-1.4-0.2l-1.6,0.8L14.1,105.123z
	 M15.4,103.023l-0.1-2.8l0.7-0.101l0.5,0.4l0.1,1.2l-0.4,0.699L15.4,103.023z M75.899,85.523l7.4,2.399l5,1.301l8,1.699l0.2,0.9
	l-8.8-1.7l-4.5-1.2l-7.7-2.699L75.899,85.523z M79.5,85.823l-0.7,0.7l-0.2,0.7l0.4,1.1l4,1.5l4.399,1.1L92,91.724l0.7-0.7l0.399-0.8
	l-0.2-1L88.7,88.423l-5.301-1.5L79.5,85.823z"/>
<path d="M43.666,59.227l1.401,0.601l0.5,1.6l-0.701,2.2l-1.301,1.1h-1.901l-0.9-1.399l0.2-2.301l1.101-1.3L43.666,59.227z
	 M41.765,61.327l-0.2,1.699l0.6,1h1.201l0.901-0.899l0.4-1.601l-0.3-1.1l-0.901-0.4l-1.2,0.5L41.765,61.327z M46.368,64.727
	l0.901-5.3h2.201l1.001,0.4l0.301,0.899l-0.301,1.101l-0.9,0.699l0.701,2.101l-0.802,0.1l-0.6-1.899h-1.401l-0.3,1.899H46.368z
	 M47.668,62.227h1.301l0.801-0.6l0.199-0.601l-0.199-0.6l-0.601-0.3h-1.1L47.668,62.227z M35.064,57.327l1.7,1.899l-1.9,0.8l2,0.801
	l-1.4,1l2.1,0.899l-2.1,1l1.7,0.7l-1.9,2.1l20.71-0.1l-1.2-1.7l1.4-1l-1.301-0.899l1.201-0.9l-1.102-0.5l1.401-1.4l-1.601-0.699
	l1.4-1.801L35.064,57.327z"/>
</svg>
