<?xml version="1.0" encoding="utf-8"?>
<!-- Generator: Adobe Illustrator 14.0.0, SVG Export Plug-In . SVG Version: 6.00 Build 43363)  -->
<!DOCTYPE svg PUBLIC "-//W3C//DTD SVG 1.1//EN" "http://www.w3.org/Graphics/SVG/1.1/DTD/svg11.dtd">
<svg version="1.1" id="Layer_1" xmlns="http://www.w3.org/2000/svg" xmlns:xlink="http://www.w3.org/1999/xlink" x="0px" y="0px"
	 width="120px" height="70px" viewBox="0 0 120 70" enable-background="new 0 0 120 70" xml:space="preserve">
<rect fill="#D1D3D4" width="120" height="70"/>
<g>
	<g>
		<path fill="#FFFFFF" d="M78.736,10.789c-11.063,1.558-11.39,17.252-11.402,25.708c-0.007,4.602,6.555,4.4,7,0
			c0.577-5.701,6.415-10.381,9.921-14.475c-1.949-1.135-3.899-2.271-5.85-3.406c-2.409,6.004-4.663,12.828-4.238,19.383
			c0.291,4.481,7.292,4.51,7,0c-0.385-5.939,1.806-12.082,3.988-17.521c1.304-3.249-3.641-5.985-5.85-3.406
			c-4.994,5.832-11.156,11.366-11.972,19.425c2.333,0,4.667,0,7,0c0.008-5.18-0.681-17.981,6.264-18.958
			C85.052,16.911,83.149,10.167,78.736,10.789L78.736,10.789z"/>
	</g>
</g>
<path d="M70.05,15.308l3.4-2.2l3.8-0.4l2.8,1.4l-0.3,0.6l-2.8-1.1l-3.101,0.3l-2.8,1.8l-0.5,10.5l1,1.7l2.101,0.4l3.199,0.3l3.101-2
	l-1.9-7.6l-0.399,6.3l-1.5-7.4l-0.601,6.8l-0.899-7.1l-1.5-0.7l0.1-0.4l1.3,0.3l2.3,0.2l3.4-1.6l0.8,11.3l-0.5,1.1l-3.5,2
	l-3.6-0.299l-2.8-1.101l-1.2-2.3L70.05,15.308z M72.75,14.308l0.8-0.7l2.7,2l-0.4,0.4L72.75,14.308z M73.35,29.208l3.4-0.1l1.4-0.7
	l0.3,2.3l-0.8,1.1l-2.101,0.101l-2.3-0.899L73.35,29.208z M76.45,32.308 M79.55,30.308l-0.399,0.201l1.6,1.5l-1.7-0.801l0.7,1.5
	l-1-0.4l-0.1,1.101l-0.801-0.2l0.4,0.7l3.4-1.5l0.899-0.601L79.55,30.308z M71.25,34.009l-1,0.399l-0.3,1l-1.3,4.701L68.55,42.91
	l0.5,0.301l0.5-2.701l1.5-5.401l1-0.7L71.25,34.009z M73.25,35.108l0.8,0.4l-1,0.7l-1.5,5.4l-0.5,2.5l-0.5-0.199l0.101-2.801
	l1.6-5.601L73.25,35.108z M75.15,36.008l0.8,0.4l-1,0.699l-1.5,5.303l-0.5,2.699l-0.4-0.299v-2.701l1.601-5.701L75.15,36.008z
	 M77.85,38.311l-0.899,0.1H75.35l1.4,0.801L77.85,38.311z M65.85,19.208l1-3l1.2,0.4l-1.7,4.8l-5.7-1.1l0.5-1.2l3.399,0.7
	l-1.899-4.5l2.5-4.1l5.1-2.4l9.6-0.1l5.601,2.4l2.399,2.8l-0.399,3.8l-2.8,2.3l3.199,0.9l-0.6,1.1l-5.1-1.2l0.6-5.1l1.4,0.1
	l-0.5,3.3l2.699-2.3l0.5-2.7l-1.899-2.1l-5.101-2.4l-9.5,0.1l-4.399,2.2l-2.101,3.3L65.85,19.208z M79.65,38.01l1.899-0.902
	l1.4-0.699l-0.4-4.601l-5.7,2.601l-6.699-3.399l0.6-0.9l-1.5,0.4l-0.1,5.499l0.8,0.5l0.399-0.7l-0.399-0.399v-3.5l6.3,3.3l0.5,4.003
	L79.65,38.01z M68.25,22.208l-7.7,2.9l0.5,1l7.7-3L68.25,22.208z M82.15,22.38l7.199,2.4l-0.5,1.028l-7.199-2.5L82.15,22.38z
	 M93.35,50.51l-7.399-2.4l-5-1.299l-8-1.701l-0.2-0.898l8.8,1.699l4.5,1.199l7.7,2.701L93.35,50.51z M89.75,50.211l0.7-0.701
	l0.2-0.699l-0.4-1.1l-4-1.5l-4.4-1.102l-4.6-0.799l-0.7,0.699l-0.399,0.801l0.199,1l4.2,0.799l5.3,1.5L89.75,50.211z M95.35,47.811
	h3.7l-0.1,1.5h-2L96.85,50.01h1l1.101,0.701l0.399,1.199l-0.5,1.301l-1.1,0.5l-1.6-0.102l-1.2-0.299l0.2-1.4l1.1,0.199h1l0.2-0.398
	l-0.3-0.4l-1.101-0.201l-0.899-0.1L95.35,47.811z M99.55,47.811h2l1.2,5.199h-0.9l1.2-5.199h1.9l-0.4,1.6l-1.5,4.1h-1.8l-1.4-4.199
	L99.55,47.811z M69.05,42.41l-6-4.5l-5.7-4.502l-10.6-10.2l-0.6,0.6l10.6,10.5l5.7,4.503l6.1,4.1L69.05,42.41z M67.25,40.01l0.1,1.1
	l-0.5,0.602L65.65,41.91l-3.5-2.199l-6-4.803l-6-5.9l0.4-0.9l0.5-0.5l1.1-0.3l5.7,5.3l5.6,4.399L67.25,40.01z M33.95,25.508v-3.2
	l-2.4-0.1v1l1,0.1v0.4l-1,0.3l-1.1-0.9v-1.1l1.1-0.9l1.8,0.5l0.6-1.4l-1.7-0.6l-2.1,0.2l-1.7,1.9l0.3,2.7l2.1,1.2l1.3-0.4l0.8,0.3
	H33.95z M34.75,22.208l-0.1,3.3h1.8v-2.7l0.6-0.1l0.3,0.3v2.5h1.7l0.1-3.1l-0.7-1.2l-1.1-0.1l-1,0.8l-0.2-0.8l-1.5,0.1L34.75,22.208
	z M42.25,21.008l-1.1,0.1l-1.3,1l-0.3,1.5l0.3,1l0.7,0.9l1.3,0.1l0.8-0.6l0.7,0.6h1v-6.5h-1.9l0.1,1.9H42.25z M42.55,22.508v1.5
	h-0.8l-0.4-0.8l0.4-0.7H42.55z M16.05,49.609l22.1-13.002l3.7,1.703l-0.3,9.699l-22.1,13.9l-0.1-9l-1.3,8.5l-1.8-0.6L16.05,49.609z
	 M17.45,49.811l2.1,0.9v-1.5l2.4,0.199l-2.4-0.801L17.45,49.811z M20.45,48.01l2.1,0.9v-1.5l2.4,0.199l-2.4-0.799L20.45,48.01z
	 M23.65,46.211l2.1,0.898v-1.5l2.4,0.201l-2.4-0.801L23.65,46.211z M26.65,44.41l2.1,0.9v-1.5l2.4,0.199l-2.4-0.799L26.65,44.41z
	 M29.85,42.609l2.1,0.9v-1.5l2.4,0.201l-2.4-0.801L29.85,42.609z M32.85,40.811l2.1,0.9v-1.5l2.4,0.199l-2.4-0.801L32.85,40.811z
	 M36.05,39.01l2.1,0.9v-1.5l2.4,0.199l-2.4-0.799L36.05,39.01z M23.45,53.01l0.6,1.301l-0.7,0.4L23.45,53.01z M23.35,57.109
	l0.1-1.299l1-0.6l0.4,1l1.2-0.701l-2.2-4.4l-1.6,1l-0.2,5.801L23.35,57.109z M71.05,44.109l-4.3,2h-5.7l-6.1-2.299l-6.4-4.701
	l-5.4-5.201l-6.5-2l-5.3,1.101l-3.2,3.7l-0.1,3.701l0.3,5.199h-0.7l-0.4-5.299l0.2-3.803l3.4-3.999l6.1-1.4l6.8,2.199l5.4,5.302
	l6.1,4.5l6,2.301h5.4l4.1-1.801L71.05,44.109z M66.05,44.711l-4.7-0.102l-5.7-2.199l-6-4.5l-5.5-5.401l-7.3-2.301l-6.7,1.6
	l-3.5,4.401v3.602l0.6,0.5l0.8,0.1l0.7-0.5l0.2-2.902l2.9-3.3l4.9-0.9l5.9,1.801l5.3,5.001l6.5,4.9l6.4,2.4h5.5l0.4-0.801
	l-0.1-0.699L66.05,44.711z"/>
</svg>
