<?xml version="1.0" encoding="utf-8"?>
<!-- Generator: Adobe Illustrator 14.0.0, SVG Export Plug-In . SVG Version: 6.00 Build 43363)  -->
<!DOCTYPE svg PUBLIC "-//W3C//DTD SVG 1.1//EN" "http://www.w3.org/Graphics/SVG/1.1/DTD/svg11.dtd">
<svg version="1.1" id="Layer_1" xmlns="http://www.w3.org/2000/svg" xmlns:xlink="http://www.w3.org/1999/xlink" x="0px" y="0px"
	 width="120px" height="85px" viewBox="0 0 120 85" enable-background="new 0 0 120 85" xml:space="preserve">
<rect fill="#D1D3D4" width="120" height="85"/>
<g>
	<g>
		<path fill="#FFFFFF" d="M98.5,21.341c-0.445-6.114,2.004-19.775-8.347-17.874c-4.745,0.872-5.29,7.653-4.718,11.279
			c0.989,6.28,0.644,12.095,5.257,17.069c3.075,3.316,8.014-1.646,4.949-4.95c-2.438-2.628-2.293-5.463-2.623-8.772
			c-0.126-1.264-0.383-2.521-0.606-3.77c-0.41-2.285,0.392-3.126-1.321-4.511c1.857,1.502,0.243,9.246,0.409,11.528
			C91.825,25.816,98.828,25.848,98.5,21.341L98.5,21.341z"/>
	</g>
</g>
<path d="M92.35,6.158l-0.3,1.199l-3.1,0.101l-1.4,3.399l0.5,6.5l3,0.801l2.8-0.2l1.801-1.2l0.1-1.4l-0.1-4.1l-1.5-2.2l-0.2-1.7
	l2.5,3l0.399,7l-2.6,1.601l-3.3,0.6l-3.7-1.2l-1.3-0.899l0.2-1.4l0.6-0.2l-0.1-5.3l1.399-3.8L92.35,6.158z M88.15,18.557l1,0.101
	v16.399l-0.9-0.399L88.15,18.557z M92.45,18.757l0.899-0.2l0.101,23.5h-1V18.757z M94.65,18.257l1-0.4v20.801l-1-0.101V18.257z
	 M90.25,18.857l0.8,0.101l0.101,18.8l-0.9-0.2V18.857z M90.05,16.857l0.8,0.101v-2.5h-1L90.05,16.857z M92.35,16.958h1.101l-0.5-1.7
	l1.1-1l-1.899,0.2L92.35,16.958z M94.55,16.357l1-1.399l-1.1,0.3L94.55,16.357z M66.55,47.657l-1.7,0.1l-1.3-0.699l0.8-0.801
	l1.4,0.4l-0.2-2.301l-0.899-1l0.6-0.398l1.6,0.898l0.101,2.102l0.899-1.201v-1.5l-1.399-1.1l0.7-0.6l1.6,0.9l0.3,1.5l1.101-0.9
	l-0.2-1l-1.5-1.201l0.7-0.398l1.5,0.799l0.5,1l1-0.799l-0.301-1.201l-1.199-1l0.6-0.599l1.8,1.199l0.3,1.301l1-0.801l-0.699-1.899
	l-1.2-0.8l-1.2-0.2l-1.6,1.6l-2.301,1.5l-2.3,1.9l-1.399,0.898l-0.601,0.9l0.3,1.6l-1,0.201l-0.399-1.801l0.5-1.799l2-1l4-2.8
	l1.6-1.601l1.5-0.899l1.601,0.6l1.6,1.2l0.7,2.299l-0.4,1.301l-1.5,0.5l-2.6,1.9l-2.7,1.898l-0.8,1L66.55,47.657z M88.35,34.357
	l0.801,0.7l-6.5,0.9l-4.5,1.3l-3.601,1.8l-0.5-0.9l3.3-1.5l5.4-1.601L88.35,34.357z M56.25,54.257l-0.9-0.199l2-3.701l4.1-4
	l2.5-1.898l0.6,0.799l-2.5,1.701l-3.6,3.6L56.25,54.257z M83.75,69.657h-1l-0.8-0.301l-1.3,0.4l-2.101-1.199l-0.3-2.701l1.7-1.898
	l2.1-0.201l1.7,0.6l-0.6,1.4l-1.801-0.5l-1.1,0.9v1.1l1.1,0.9l1-0.301v-0.398l-1-0.102v-1l2.4,0.102V69.657z M84.55,66.356l-0.1-1
	l1.5-0.1l0.2,0.801l1-0.801l1.1,0.1l0.7,1.201l-0.101,3.1H87.15v-2.5l-0.301-0.301l-0.6,0.102v2.699h-1.8L84.55,66.356z
	 M92.05,65.157h0.3l-0.1-1.9h1.9v6.5h-1l-0.7-0.6l-0.8,0.6l-1.301-0.1l-0.699-0.9l-0.301-1l0.301-1.5l1.3-1L92.05,65.157z
	 M92.35,66.657h-0.8l-0.399,0.699l0.399,0.801h0.8V66.657z M55.35,54.058l-1.1-5.701l-1.2-5.699l-1.8-5.8l-2.7-5.6l-4.6-4.4l-5.5-2
	l-5.3,1.101l-3.2,3.7l-0.1,3.699l0.3,5.2h-0.7l-0.4-5.3l0.2-3.8l3.4-4l6.1-1.4l5.8,2.2l4.6,4.5l2.6,5.6l2.1,5.8l1.2,5.801l1.2,5.5
	L55.35,54.058z M55.65,47.458l-1.1-5.701l-2.1-5.9l-2.7-5.8l-4.8-4.6l-6.2-2.3l-6.8,1.6l-3.5,4.4v3.6l0.6,0.5l0.8,0.1l0.7-0.5
	l0.2-2.899l2.9-3.3l4.9-0.9l4.9,1.8l4.4,4.3l2.7,5.601l1.7,5.5l1.1,5.398h0.9l0.8-0.398L55.65,47.458z M9.75,49.058l2.1,0.9v-1.5
	l2.4,0.199l-2.4-0.801L9.75,49.058z M12.75,47.257l2.1,0.9v-1.5l2.4,0.199l-2.4-0.799L12.75,47.257z M15.95,45.458l2.1,0.898v-1.5
	l2.4,0.201l-2.4-0.801L15.95,45.458z M18.95,43.657l2.1,0.9v-1.5l2.4,0.199l-2.4-0.799L18.95,43.657z M22.15,41.856l2.1,0.9v-1.5
	l2.4,0.201l-2.4-0.801L22.15,41.856z M25.15,40.058l2.1,0.9v-1.5l2.4,0.199l-2.4-0.8L25.15,40.058z M28.35,38.257l2.1,0.9v-1.5
	l2.4,0.199l-2.4-0.8L28.35,38.257z M19.35,51.558l0.5,1.199l1-0.6l-0.2-1.199l0.2-0.602l0.5,0.102l0.7,0.699l0.4,0.1l0.9-0.299
	l0.5-0.801l0.1-1.4l-0.5-1.1l-0.9,0.5l0.4,0.9l-0.1,1l-0.4,0.199l-0.6-0.6l-0.3-0.199l-0.5-0.301l-0.9,0.301l-0.5,0.799
	L19.35,51.558z M8.35,48.856l22.1-13l3.7,1.7l-0.3,9.7l-22.1,13.9l-0.1-9l-1.3,8.5l-1.8-0.6L8.35,48.856z M14.25,57.157l1.7-0.699
	l1.4-1.102l0.8-1.6l-0.1-2.1l-1.1-1.1l-1.4-0.201l-1.6,0.801L14.25,57.157z M15.55,55.058l-0.1-2.801l0.7-0.1l0.5,0.4l0.1,1.199
	l-0.4,0.701L15.55,55.058z M93.45,42.058l-2.4,7.6l-1.2,4.801l-1.8,8.1h-1l1.7-8.5l1.3-4.6l2.5-7.801L93.45,42.058z M93.15,45.856
	l-0.7-0.799l-0.7-0.301l-1.1,0.4l-1.5,4.199l-1.2,4.602l-0.8,4.699l0.899,0.5h0.8l0.9-0.301l0.9-4.199l1.399-5.1L93.15,45.856z
	 M74.25,55.257l-1.7,0.5l-1.399-0.4l0.6-0.898h1.4l-0.801-2.102l-1.1-0.699l0.5-0.699l1.8,0.6l0.601,1.9l0.6-1.301l-0.4-1.5
	l-1.699-0.801l0.6-0.6l1.8,0.301l0.601,1.5l0.8-1.201l-0.5-1l-1.7-0.699l0.6-0.6l1.7,0.5l0.601,0.699l1-1l-0.7-1l-1.4-0.699
	l0.3-0.701l2.101,0.602l0.6,1.199l0.7-1l-1-1.699l-1.5-0.4l-1.2,0.1l-1,1.9l-1.899,2.1l-1.7,2.301l-1.2,1.5l-0.3,0.898l0.7,1.4
	l-0.9,0.5l-0.9-1.6l0.101-1.801l1.6-1.6l3.2-3.699l1.1-2l1.2-1.201l1.601,0.201l1.899,0.699l1.3,2l-0.1,1.4l-1.2,0.801l-2,2.5
	l-2.1,2.5l-0.601,1.299L74.25,55.257z M90.25,37.257l0.9,0.5l-4.4,2l-4,2.4l-3.1,2.699l-0.601-0.699l2.7-2.4l4.9-2.9L90.25,37.257z
	 M65.95,64.356h-0.9l1-4.1l2.9-5l1.899-2.5l0.801,0.701l-2,2.199l-2.5,4.5L65.95,64.356z M102.75,56.757l-0.4-1.1l-0.199-1.301
	l-1.4-3l-1.3-2.898l-1-1.201l0.3-1.4l1.7-1.6l2-0.199l1.7,0.199l0.8,1.6l0.6,2.201l2.101,4.4l1.199,1.799l-0.5,1.9l-1.199,1.301
	l-0.801-0.701l1.101-1.199l-0.101-1.1l-0.699-1.5l-1.101-2.701l-1.2-2.5l-0.6-2.199l-1.1-0.4l-1.5,0.1l-1.5,1.301l0.399,1.199l0.9-1
	l2.2-0.1l0.199,0.801l-1.5,0.199l-0.899,0.9l0.5,1.199l0.899-0.6l1.7,0.1l0.4,0.701l-1.9,0.299l-0.7,0.701l0.5,1.299l1.101-1.1h1.8
	l0.3,0.9l-1.8,0.199l-0.7,1.301l0.2,1.5l1.1-1.701h1.801l0.399,0.602l-1.3,0.398l-1.3,1.9l1.399,0.4l0.301,1.1l-1.5-0.1
	L102.75,56.757z M111.55,67.757l-2-4.4l-2.6-5l-1.3-2.699l0.899-0.4l1.3,2.9l2.801,5.5l2,4.199L111.55,67.757z M59.15,26.658h0.8
	v3.5h0.4l1.1-1.4l0.899,0.1l-1.399,1.601l1.8,2.1h-1l-1.4-1.7h-0.4v1.7h-0.8V26.658z M58.65,21.158l1.1-1h1.4l1.1,1.199l0.2,1.601
	l-0.5,0.899l-0.8,0.601l-1.4,0.2l-1.1-1l-0.3-1.4L58.65,21.158z M59.95,20.958l-0.5,0.6l-0.3,0.7l0.2,0.8l0.6,0.7h0.8l0.6-0.3
	l0.301-0.8l-0.101-0.9l-0.6-0.8H59.95z M53.85,20.557l0.3,0.8l1-0.5h0.9l0.5,0.5l-0.2,0.7l-1.1,0.8l-1.4,0.801v0.899h3.6l-0.1-0.8
	h-2.5v0.1l1.1-0.5l1-0.6l0.5-1.3l-0.2-0.8l-1.2-0.7l-1,0.1L53.85,20.557z M49.15,20.557l0.3,0.8l1-0.5h0.9l0.5,0.5l-0.2,0.7
	l-1.1,0.8l-1.4,0.801v0.899h3.6l-0.1-0.8h-2.5v0.1l1.1-0.5l1-0.6l0.5-1.3l-0.2-0.8l-1.2-0.7l-1,0.1L49.15,20.557z M66.85,26.557
	l2,0.8l0.801,1.601l-0.4,2.5l-1.2,1.2h-2.2l-1.3-1.5l-0.1-2.601l1-1.3L66.85,26.557z M65.35,28.857v1.9l0.9,1.1h1.5l0.8-1l0.2-1.8
	l-0.6-1.1l-1.301-0.5l-1,0.6L65.35,28.857z M73.75,29.057l-1.1-0.1l-1,0.6v-2.8H70.85v5.9h0.801v-2.4l1-0.6l0.8,0.1l0.1,1.1v1.801
	h0.8v-1.801v-1L73.75,29.057z M54.35,29.257l0.4,0.6l1-0.6v2.6h-1.1v0.7h2.9v-0.7h-0.9l-0.1-3.699h-0.5L54.35,29.257z M77.85,29.057
	H76.95l-0.7,0.5v-0.5h-0.8v3.601h0.8v-2.4l0.9-0.6l0.5,0.199l0.1,1v1.801h0.7v-1.801v-1L77.85,29.057z M78.15,29.757l0.3,0.5
	l0.899-0.6l0.5,0.199l0.101,1v1.801h0.7v-1.801v-1l-0.601-0.8H79.15L78.15,29.757z M66.35,19.958l0.5-0.101v3.5l0.5,0.5h0.9v0.601
	l-0.7,0.1l-0.8-0.2l-0.6-0.699v-2.5L66.35,19.958z M65.55,21.257l0.8-1.3l0.101,0.899l1.8-0.1v0.7h-2.7V21.257z M69.25,21.557l1-0.8
	h1.3l1,1l0.2,1.3l-0.5,1l-0.7,0.5l-1.3,0.101l-1-0.801l-0.3-1.199L69.25,21.557z M70.45,21.458l-0.5,0.5l-0.2,0.7l0.1,0.699
	l0.601,0.601h0.7l0.6-0.3l0.3-0.9l-0.1-0.7l-0.601-0.6H70.45z M65.45,63.657l-0.4,0.699l-9-2.898l-10.1-2.301l-11.7-2.1l0.2-0.801
	l11.6,2l10.2,2.4L65.45,63.657z M61.55,61.657l-5-1.699l-10.4-2.4l-5.2-1l-0.9,0.6l-0.1,0.801l0.4,0.799l5.6,1.1l9.9,2.301l5.1,1.5
	l0.7-0.4l0.199-0.699L61.55,61.657z M36.55,58.356l-0.6,0.701l-2.7-2.5l3.4-1.701l0.4,0.801l-2.5,1.1L36.55,58.356z M30.05,64.558
	l-0.7,0.6l-2.1-2.9l3.6-0.9l0.2,0.801l-2.7,0.6L30.05,64.558z M95.15,37.757l3.699,4.099l2.101,2.9l-0.9,0.6l-2.2-3.398
	l-3.199-3.401L95.15,37.757z M86.55,76.757l-13-1.299l-19.1-3.801l-11-2.9l-15.4-5.799l0.5-0.602l15.3,5.602l10.8,2.799l19.2,3.801
	l12.7,1.299l8.601-0.199l8.3-2.199l8.5-6.102l0.7,0.5l-8.7,6.301l-8.5,2.301L86.55,76.757z M86.55,75.157l-12.6-1.301l-19.5-3.898
	l-10.2-2.701l-9-3.299l-1,0.6l-0.4,0.6l0.5,1.1l8.8,3.201l11.2,2.898l19,3.801l13.301,1.301l8.899-0.301l8.8-2.4l5.5-4l-0.1-0.799
	l-0.7-0.602h-1.1l-5,3.5l-7.9,2.102L86.55,75.157z"/>
</svg>
