<?xml version="1.0" encoding="utf-8"?>
<!-- Generator: Adobe Illustrator 14.0.0, SVG Export Plug-In . SVG Version: 6.00 Build 43363)  -->
<!DOCTYPE svg PUBLIC "-//W3C//DTD SVG 1.1//EN" "http://www.w3.org/Graphics/SVG/1.1/DTD/svg11.dtd">
<svg version="1.1" id="Layer_1" xmlns="http://www.w3.org/2000/svg" xmlns:xlink="http://www.w3.org/1999/xlink" x="0px" y="0px"
	 width="120px" height="80px" viewBox="0 0 120 80" enable-background="new 0 0 120 80" xml:space="preserve">
<rect fill="#D1D3D4" width="120" height="80"/>
<g>
	<g>
		<path fill="#FFFFFF" d="M96.728,14.738c-4.586,8.736-11.708,15.42-19.202,21.667c-2.786,2.321,0.204,6.736,3.405,5.85
			c6.682-1.852,12.673-5.488,19.5-6.875c-1.436-1.435-2.87-2.87-4.306-4.306c-0.872,2.628-3.242,3.8-5.419,5.229
			c-2.242,1.474-4.023,3.234-5.502,5.466c-1.788,2.7,1.139,5.795,3.953,5.142c6.392-1.482,11.647-4.171,16.817-8.182
			c3.563-2.764-1.43-7.68-4.949-4.95c-4.186,3.247-8.594,5.19-13.729,6.381c1.317,1.714,2.636,3.428,3.953,5.142
			c3.395-5.126,9.499-5.956,11.626-12.367c0.896-2.702-1.854-4.803-4.306-4.306c-6.832,1.388-12.816,5.023-19.5,6.875
			c1.136,1.95,2.271,3.9,3.405,5.85c7.937-6.615,15.445-13.84,20.298-23.083C104.868,14.279,98.827,10.74,96.728,14.738
			L96.728,14.738z"/>
	</g>
</g>
<path d="M68.6,60.772l0.9-0.801l0.8-1l2.7-1.9l2.6-1.9l1.5-0.5l0.4-1.299l-0.7-2.301l-1.6-1.199l-1.601-0.6l-1.5,0.898l-1.6,1.602
	l-4,2.799l-2,1L64,57.372l0.399,1.799l1-0.199l-0.3-1.6l0.601-0.9l1.399-0.9l2.3-1.9l2.301-1.5l1.6-1.6l1.2,0.201l1.2,0.799
	l0.699,1.9l-1,0.801l-0.3-1.301l-1.8-1.199l-0.6,0.6l1.199,1l0.301,1.199l-1,0.801l-0.5-1l-1.5-0.801l-0.7,0.4l1.5,1.199l0.2,1
	l-1.101,0.9l-0.3-1.5l-1.6-0.9l-0.7,0.602l1.399,1.1v1.5L69,59.071l-0.101-2.1l-1.6-0.9l-0.6,0.4l0.899,1l0.2,2.301l-1.4-0.4
	l-0.8,0.799l1.3,0.701L68.6,60.772z M86.5,49.071l-0.8,0.201l-0.2,0.1l-9.4,1.9l0.5,0.898l9.2-2l1.1-0.398L86.5,49.071z
	 M59.6,66.372l2.2-3.701l2.3-2.6l2.5-1.699L66,57.571l-2.5,1.9l-2.8,3l-2,3.5L59.6,66.372z M83.399,66.671l3.5-7l2.601-4.398
	l4.5-6.9l-0.8-0.301l-4.7,7l-2.4,4l-3.5,7.301L83.399,66.671z M85.7,63.872h-1l-0.601-0.4l-0.5-1l1.7-3.9l2.4-3.9l2.699-3.799h1
	l0.801,0.299l0.6,0.801l-2.4,3.6L87.7,60.372L85.7,63.872z M56.2,72.772v-3.201l-2.4-0.1v1l1,0.1v0.4l-1,0.301l-1.1-0.9v-1.1
	l1.1-0.9l1.8,0.5l0.6-1.4l-1.7-0.6l-2.1,0.199l-1.7,1.9l0.3,2.699l2.1,1.201l1.3-0.4l0.8,0.301H56.2z M77.1,68.571l-0.2,3.201
	l0.9,0.1l1.1,0.199l0.301,0.4l-0.2,0.4h-1l-1.101-0.201l-0.199,1.4l1.199,0.301l1.601,0.1l1.1-0.5l0.5-1.301L80.7,71.472
	L79.6,70.772h-1l0.101-0.701h2l0.1-1.5H77.1z M81.3,68.571l0.3,1.5l1.4,4.201h1.8l1.5-4.102l0.4-1.6h-1.9l-1.2,5.201h0.9l-1.2-5.201
	H81.3z M55.9,49.472l1.7-1.1h0.5l0.1,3.699h0.9v0.701h-2.9v-0.701h1.1v-2.6l-1,0.6L55.9,49.472z M60,49.372l-0.3,1.1l0.3,1.4l1.1,1
	l1.4-0.201l0.8-0.6l0.5-0.9l-0.2-1.6l-1.1-1.199h-1.4L60,49.372z M61.3,49.171h1l0.6,0.801l0.101,0.9l-0.3,0.799L62.1,51.972h-0.8
	l-0.6-0.699l-0.2-0.801l0.3-0.699L61.3,49.171z M65,46.872v5.9h0.8v-1.701h0.4l1.399,1.701h1l-1.8-2.102l1.4-1.6l-0.9-0.1l-1.1,1.4
	h-0.4v-3.5H65z M57,69.472l-0.1,3.301h1.8v-2.701l0.6-0.1l0.3,0.301v2.5h1.7l0.1-3.102l-0.7-1.199l-1.1-0.1l-1,0.799l-0.2-0.799
	l-1.5,0.1L57,69.472z M64.5,68.272l-1.101,0.1l-1.3,1l-0.3,1.5l0.3,1l0.7,0.9l1.3,0.1l0.8-0.6l0.7,0.6h1v-6.5H64.7l0.1,1.9H64.5z
	 M64.8,69.772v1.5H64l-0.4-0.801l0.4-0.699H64.8z M90.6,27.672l-8.899,4.1l-0.2,9.6l8.7,2.799L90,35.272l13.5-4.701v8.201
	l-11.9,3.898v1.102l13-4.201l0.4-10.299l-6.3-1.9l-1.101,0.6l5.2,1.7l-12.9,4.3l-6.3-1.8l7-3.3V27.672z M95.8,29.372l4.6-8.6l1.5-6
	l-1-1.7L99,12.572l-1.7,0.6l-1.2,1.5l-2.899,8l-1.4,6.2l0.6,1.2l1.7,0.2L95.8,29.372z M92.5,28.172l1.5-5.2l2.8-7.7l1.2-1.4l1.1-0.5
	l1,0.5l0.4,1.2l-1.101,2.2l-3.5,4.9l-2.1,4.5L92.5,28.172z M100.6,40.372l-1.3,0.199l0.2,6.201l1-0.201L100.6,40.372z M94.2,42.472
	l-1.2,0.1l0.2,6.301l0.8-0.301L94.2,42.472z M87.399,43.071l-1.1-0.4l0.1,7.301l1-0.1V43.071z M92.8,30.872l-1.1-0.3l-0.801-1.4
	L86,31.872l1.8-0.4l-0.7,1.1l2.601-1l-1.2,1.3L92.8,30.872z M86.6,49.272l0.101-0.801L78.6,44.772L68.7,38.172l-9.101-7.1l-12.4-4.5
	l-12.1,1.3l-8.1,7.2l-1.3,6l0.2,4.301l0.9,0.299l-0.1-4.398l1.2-5.601l7.7-6.9l11.5-1.2l12.2,4.4l8.7,6.801l10,6.5L86.6,49.272z
	 M17,48.071l0.2,11.201l1.8,0.6l1.3-8.5l0.1,9l22.1-13.9l0.3-9.699l-3.7-1.701L17,48.071z M18.4,48.272l2.1-1.201l2.4,0.801
	l-2.4-0.201v1.5L18.4,48.272z M21.4,46.472l2.1-1.199l2.4,0.799l-2.4-0.199v1.5L21.4,46.472z M24.6,44.671l2.1-1.199l2.4,0.801
	l-2.4-0.201v1.5L24.6,44.671z M27.6,42.872l2.1-1.201l2.4,0.801l-2.4-0.199v1.5L27.6,42.872z M30.8,41.071l2.1-1.199l2.4,0.8
	l-2.4-0.2v1.5L30.8,41.071z M33.8,39.272l2.1-1.201l2.4,0.801l-2.4-0.2v1.5L33.8,39.272z M37,37.472l2.1-1.199l2.4,0.799l-2.4-0.199
	v1.5L37,37.472z M22.9,56.372l-0.3-6l1.6-0.801l1.4,0.201l1.1,1.1l0.1,2.1l-0.8,1.6l-1.4,1.1L22.9,56.372z M24.2,54.272l0.8-0.602
	l0.4-0.699l-0.1-1.199l-0.5-0.4l-0.7,0.1L24.2,54.272z M24.9,40.472l1.1-5.8l8.6-7.7l12.6-1.3l13,4.7l9.1,7.2l9.8,6.6l4.101,1.801
	l0.1,0.9l-0.4,0.799L82,48.071l-4.4-2.1l-10.2-6.699l-8.6-6.601l-11.7-4.2l-11,1.1l-7.2,6.5l-1.3,4.701l-0.9,0.5l-1-0.102
	L24.9,40.472z M96.7,10.272l-3.4-2.5l-4.2-0.2l-4.2,2l-2.3,3.8l-0.7-2.4l-1.1,0.2l1.3,4.4l4.101-1.3l-0.301-1.1l-2.6,0.9l2.4-3.9
	l3.3-1.4l3.7-0.2l3.5,2.5l-3,0.6l0.199,1.2l4.801-1.6l-1.601-4.6l-1.1,0.3L96.7,10.272z"/>
</svg>
