<?xml version="1.0" encoding="utf-8"?>
<!-- Generator: Adobe Illustrator 14.0.0, SVG Export Plug-In . SVG Version: 6.00 Build 43363)  -->
<!DOCTYPE svg PUBLIC "-//W3C//DTD SVG 1.1//EN" "http://www.w3.org/Graphics/SVG/1.1/DTD/svg11.dtd">
<svg version="1.1" id="Layer_1" xmlns="http://www.w3.org/2000/svg" xmlns:xlink="http://www.w3.org/1999/xlink" x="0px" y="0px"
	 width="120px" height="70px" viewBox="0 0 120 70" enable-background="new 0 0 120 70" xml:space="preserve">
<rect fill="#D1D3D4" width="120" height="70"/>
<g>
	<g>
		<path fill="#FFFFFF" d="M93.713,15.967c-3.266,3.034-6.744,6.264-9.068,10.104c-1.683,2.782,1.063,5.732,3.953,5.142
			c3.599-0.736,6.898-2.883,10.569-3.209c-1.008-0.578-2.015-1.156-3.022-1.733c0.605,0.888,0.53,0.351-0.396,1.197
			c-1.307,1.195-3.207,1.967-4.766,2.765c-4.02,2.057-0.477,8.096,3.533,6.044c5.041-2.579,12.043-7.127,7.673-13.539
			c-0.659-0.967-1.763-1.845-3.022-1.733c-4.412,0.392-8.149,2.583-12.431,3.458c1.317,1.714,2.636,3.428,3.953,5.141
			c2.004-3.312,5.156-6.07,7.973-8.687C101.976,17.838,97.014,12.899,93.713,15.967L93.713,15.967z"/>
	</g>
</g>
<path d="M68.2,44.238l0.899-0.799l0.8-1l2.7-1.9l2.601-1.9l1.5-0.5l0.399-1.301l-0.7-2.3l-1.6-1.199l-1.6-0.6l-1.5,0.899l-1.601,1.6
	l-4,2.801l-2,1l-0.5,1.799l0.4,1.801l1-0.199l-0.3-1.602l0.6-0.898l1.4-0.9l2.3-1.9l2.3-1.5l1.6-1.601l1.2,0.201l1.2,0.8l0.7,1.9
	l-1,0.799l-0.3-1.299l-1.801-1.201l-0.6,0.6l1.2,1l0.3,1.201l-1,0.799l-0.5-1l-1.5-0.799l-0.7,0.4l1.5,1.199l0.2,1l-1.1,0.9
	l-0.301-1.5l-1.6-0.9l-0.7,0.6l1.4,1.1v1.5l-0.9,1.201l-0.1-2.1l-1.601-0.9l-0.6,0.4l0.9,1l0.199,2.299L66,42.838l-0.8,0.801
	l1.3,0.699L68.2,44.238z M100.3,23.539l0.4,1.3l-6.601,1.9l-5.5-2.6l2.3-0.8v-0.8l-4.3,1.4v5.2l1,0.5l-0.2-4.8l6.4,3v2.901l-1.1,0.5
	l1.199,0.799l8.801-3.1l-0.2-3.9L100.3,23.539z M91.7,20.639l0.699-1h0.9l-0.7,0.7l0.9,0.5l2,0.7l2.5-0.6l-1-1l-2-0.4l-0.2-0.5
	l3,0.4l1.3,1.4l-0.399,3.4l-2.7,1.1l-3.2-0.6l-1.2-1.1L91.7,20.639z M89,27.039l-1,0.4l-0.3,1l-1.601,2.7l-0.5,2l0.9,0.101
	l0.5-1.701l1.8-3.399l1-0.7L89,27.039z M92.5,28.839l0.8,0.4l-1,0.699l-1,3.301l-0.8,1.7l-0.601-0.101l0.5-1.9l1.101-3.699
	L92.5,28.839z M89.5,30.239l-0.8-0.5l0.399-0.601l2.5,1.2l-0.3,0.6L89.5,30.239z M103,27.239v1l0.6,0.1l1.2,2.2l0.6-0.199
	l-0.899-2.3L103,27.239z M86.1,32.538l-0.8,0.201l-0.2,0.1l-9.399,1.9l0.5,0.899l9.199-2l1.101-0.399L86.1,32.538z M59.2,49.838
	l2.2-3.699l2.301-2.6l2.5-1.701L65.6,41.039l-2.5,1.9l-2.8,3l-2,3.5L59.2,49.838z M90,34.339l0.5,0.601l-5.101,5.299l-2.3,4.1
	L80.2,52.439l-0.801-0.301l2.7-8l2.5-4.6L90,34.339z M87.399,35.738l-3.6,3.201l-2.6,4.898L79.6,48.639l0.8,0.699l0.801,0.102
	l1-0.201l1.699-4.5l2.301-4l2.8-3.1v-1.199l-0.5-0.602L87.399,35.738z M55.8,56.238v-3.199l-2.4-0.1v1l1,0.1v0.4l-1,0.299l-1.1-0.9
	v-1.1l1.1-0.9l1.8,0.5l0.6-1.398l-1.7-0.602L52,50.539l-1.7,1.9l0.3,2.699l2.1,1.199l1.3-0.398l0.8,0.299H55.8z M73.899,54.039
	L73.7,57.238l0.899,0.1l1.101,0.201l0.3,0.4l-0.2,0.398h-1l-1.1-0.199l-0.2,1.4l1.2,0.299l1.6,0.102l1.1-0.5l0.5-1.301L77.5,56.939
	l-1.101-0.701h-1l0.101-0.699h2l0.1-1.5H73.899z M78.1,54.039l0.3,1.5l1.4,4.199h1.8l1.5-4.1l0.4-1.6h-1.9l-1.2,5.199h0.9
	l-1.2-5.199H78.1z M55.5,32.938l1.7-1.1h0.5l0.1,3.7h0.9v0.699h-2.9v-0.699h1.1v-2.601l-1,0.6L55.5,32.938z M59.6,32.839l-0.3,1.1
	l0.3,1.399l1.1,1l1.4-0.199l0.8-0.6l0.5-0.901l-0.199-1.6L62.1,31.839h-1.4L59.6,32.839z M60.9,32.639h1l0.601,0.8l0.1,0.9l-0.3,0.8
	l-0.6,0.301h-0.8l-0.6-0.7l-0.2-0.801l0.3-0.699L60.9,32.639z M64.6,30.339v5.899h0.8v-1.7h0.4l1.4,1.7h1l-1.801-2.1l1.4-1.601
	l-0.9-0.1l-1.1,1.4h-0.4v-3.5H64.6z M56.6,52.939l-0.1,3.299h1.8v-2.699l0.6-0.1l0.3,0.299v2.5h1.7l0.1-3.1l-0.7-1.199l-1.1-0.102
	l-1,0.801L58,51.838l-1.5,0.102L56.6,52.939z M64.1,51.738l-1.1,0.1l-1.3,1l-0.301,1.5l0.301,1l0.699,0.9l1.301,0.1l0.8-0.6l0.7,0.6
	h1v-6.5h-1.9l0.1,1.9H64.1z M64.399,53.238v1.5h-0.8L63.2,53.939l0.399-0.701H64.399z M16.6,46.539l0.2,11.199l1.8,0.6l1.3-8.5
	l0.1,9l22.1-13.898l0.3-9.701l-3.7-1.7L16.6,46.539z M18,46.738l2.1-1.199l2.4,0.799l-2.4-0.199v1.5L18,46.738z M21,44.939
	l2.1-1.201l2.4,0.801l-2.4-0.201v1.5L21,44.939z M24.2,43.139l2.1-1.199l2.4,0.799l-2.4-0.199v1.5L24.2,43.139z M27.2,41.338
	l2.1-1.199l2.4,0.801l-2.4-0.201v1.5L27.2,41.338z M30.4,39.539l2.1-1.201l2.4,0.801l-2.4-0.199v1.5L30.4,39.539z M33.4,37.738
	l2.1-1.199l2.4,0.799l-2.4-0.199v1.5L33.4,37.738z M36.6,35.939l2.1-1.2l2.4,0.8l-2.4-0.201v1.5L36.6,35.939z M22.5,54.838l-0.3-6
	l1.6-0.799l1.4,0.199l1.1,1.1l0.1,2.102l-0.8,1.6l-1.4,1.1L22.5,54.838z M23.8,52.738l0.8-0.6l0.4-0.699l-0.1-1.201l-0.5-0.4
	l-0.7,0.102L23.8,52.738z M61.6,21.938l9.8,1.5l7.101,3l7,6.7h1l-7.3-7.3l-7.4-3.2l-10-1.5l-9.8,0.4l-8.6,2.4l-9,4.5l-4.6,4.801
	l-1.4,4.3v4.799l1,0.102v-4.9l1.3-3.9l4.4-4.5l8.6-4.4l8.4-2.2L61.6,21.938z M61.8,20.338l10.4,1.6l7.699,3.4l3.9,4l-0.4,0.6
	l-0.8,0.6l-0.8,0.101l-3.9-3.5l-6.8-2.9l-9.6-1.5l-9.2,0.6l-8.3,2.2l-8.1,4.1l-4.3,4.2l-1.4,3.3l-1,0.5h-0.7l-0.9-0.6l1.4-4.101
	l4.8-5.1l9.3-4.7l8.7-2.3L61.8,20.338z M94.3,8.239l1-0.1l0.2,6.9l2.2-1.6l0.8,0.8l-3.5,2.7l-4-3.2l0.7-0.8l2.6,2V8.239z"/>
</svg>
